<svg xmlns="http://www.w3.org/2000/svg" viewBox="0 0 64 64" width="64" height="64">
  <defs>
    <linearGradient id="freezeGrad" x1="0%" y1="0%" x2="100%" y2="100%">
      <stop offset="0%" style="stop-color:#B0E0E6"/>
      <stop offset="100%" style="stop-color:#00CED1"/>
    </linearGradient>
    <filter id="freezeShadow" x="-20%" y="-20%" width="140%" height="140%">
      <feDropShadow dx="0" dy="2" stdDeviation="2" flood-color="#000" flood-opacity="0.5"/>
    </filter>
  </defs>
  <circle cx="32" cy="32" r="28" fill="url(#freezeGrad)" stroke="#008B8B" stroke-width="3" filter="url(#freezeShadow)"/>
  <!-- Snowflake -->
  <g fill="none" stroke="#FFF" stroke-width="2.5" stroke-linecap="round">
    <!-- Main lines -->
    <line x1="32" y1="12" x2="32" y2="52"/>
    <line x1="14" y1="22" x2="50" y2="42"/>
    <line x1="14" y1="42" x2="50" y2="22"/>
    <!-- Branches -->
    <line x1="32" y1="18" x2="26" y2="14"/>
    <line x1="32" y1="18" x2="38" y2="14"/>
    <line x1="32" y1="46" x2="26" y2="50"/>
    <line x1="32" y1="46" x2="38" y2="50"/>
    <line x1="20" y1="26" x2="16" y2="20"/>
    <line x1="44" y1="38" x2="48" y2="44"/>
    <line x1="20" y1="38" x2="16" y2="44"/>
    <line x1="44" y1="26" x2="48" y2="20"/>
  </g>
  <circle cx="32" cy="32" r="4" fill="#FFF"/>
</svg>
