<svg xmlns="http://www.w3.org/2000/svg" viewBox="0 0 64 64" width="64" height="64">
  <defs>
    <linearGradient id="shieldGrad" x1="0%" y1="0%" x2="100%" y2="100%">
      <stop offset="0%" style="stop-color:#6BB3FF"/>
      <stop offset="100%" style="stop-color:#0066CC"/>
    </linearGradient>
    <filter id="shieldShadow" x="-20%" y="-20%" width="140%" height="140%">
      <feDropShadow dx="0" dy="2" stdDeviation="2" flood-color="#000" flood-opacity="0.5"/>
    </filter>
  </defs>
  <circle cx="32" cy="32" r="28" fill="url(#shieldGrad)" stroke="#003366" stroke-width="3" filter="url(#shieldShadow)"/>
  <path d="M32 8 C32 8 48 12 48 12 C48 12 48 32 48 32 C48 44 32 52 32 52 C32 52 16 44 16 32 C16 32 16 12 16 12 C16 12 32 8 32 8 Z" fill="#FFD700" stroke="#CC9900" stroke-width="2"/>
  <path d="M32 14 C32 14 44 17 44 17 C44 17 44 32 44 32 C44 41 32 47 32 47 C32 47 20 41 20 32 C20 32 20 17 20 17 C20 17 32 14 32 14 Z" fill="#4169E1" stroke="none"/>
</svg>
